PathFileType	4	(X/Y/Z)	Walk8.trc
DataRate	CameraRate	NumFrames	NumMarkers	Units	OrigDataRate	OrigDataStartFrame	OrigNumFrames
200.000000	200.000000	8	61	mm	200.000000	419	754
Frame#	Times		RCAR		LUA1		LCAR		LFA1		LWRU		RTB3		RFHD		LElbow		RToe		LTH3		RTH2		RMT5		LWRR		LElbowM		RTB2		RMT1		LFHD		RPSI		STRN		RLFC		C7		RTH1		LTH4		RFA1		LTH2		T10		LLFC		RLMAL		LASI		CLAV		LPSI		RUA1		RBack		RTH3		RElbowM		LACR1		LCAL		RElbow		LMFC		LTB1		RWRR		RTH4		LTB2		LMT5		RTB4		RACR1		RMFC		LTB3		RMMAL		LTB4		LLMAL		LToe		RBHD		RWRU		RTB1		LTH1		LMMAL		LBHD		RCAL		LMT1		RASI
			X1	Y1	Z1	X2	Y2	Z2	X3	Y3	Z3	X4	Y4	Z4	X5	Y5	Z5	X6	Y6	Z6	X7	Y7	Z7	X8	Y8	Z8	X9	Y9	Z9	X10	Y10	Z10	X11	Y11	Z11	X12	Y12	Z12	X13	Y13	Z13	X14	Y14	Z14	X15	Y15	Z15	X16	Y16	Z16	X17	Y17	Z17	X18	Y18	Z18	X19	Y19	Z19	X20	Y20	Z20	X21	Y21	Z21	X22	Y22	Z22	X23	Y23	Z23	X24	Y24	Z24	X25	Y25	Z25	X26	Y26	Z26	X27	Y27	Z27	X28	Y28	Z28	X29	Y29	Z29	X30	Y30	Z30	X31	Y31	Z31	X32	Y32	Z32	X33	Y33	Z33	X34	Y34	Z34	X35	Y35	Z35	X36	Y36	Z36	X37	Y37	Z37	X38	Y38	Z38	X39	Y39	Z39	X40	Y40	Z40	X41	Y41	Z41	X42	Y42	Z42	X43	Y43	Z43	X44	Y44	Z44	X45	Y45	Z45	X46	Y46	Z46	X47	Y47	Z47	X48	Y48	Z48	X49	Y49	Z49	X50	Y50	Z50	X51	Y51	Z51	X52	Y52	Z52	X53	Y53	Z53	X54	Y54	Z54	X55	Y55	Z55	X56	Y56	Z56	X57	Y57	Z57	X58	Y58	Z58	X59	Y59	Z59	X60	Y60	Z60	X61	Y61	Z61

419	2.095	-546.28	906.75	311.75	-864.14	1283.5	-248.56	-876.02	795.05	-255.42	-938.66	986.09	-260.73	-933.91	851.1	-246.12	-1012.7	186.77	95.39	-821.11	1623.1	-67.622	-926.15	1137.1	-258.24	-911.33	25.384	129.55	-723.73	603.48	-162.84	-797.8	677.61	169.74	-1020.8	23.349	175.91	-861.2	850.3	-206.74	-951.34	1138.4	-184.81	-999.81	272.95	165.44	-963.93	34.781	101.93	-815.94	1629.7	73.81	-961.14	1016.6	60.779	-672.55	1233.4	0.68855	-940.82	493.44	179.21	-842.79	1498.9	7.9054	-837.14	787.89	204.07	-748.57	691.95	-176.73	-698.55	1007.8	340.13	-686.26	713.16	-146.41	-953.01	1279.7	14.364	-698.72	509.95	-148.54	-1100.7	84.965	133.47	-753.17	1016.2	-121.01	-712.91	1408.6	3.2598	-964.51	1009.2	-16.418	-769.59	1291.1	274.43	-912.89	1413.1	145.89	-894.42	606.82	186.95	-820.98	1111.9	266.02	-780.17	1450.4	-163.56	-606.11	18.796	-85.891	-783.43	1140.8	335.1	-687.99	513.53	-14.945	-605.51	396.63	-82.593	-577.22	936.91	260.17	-863.43	695.64	198.62	-614.88	305.41	-153.88	-454.22	55.235	-161.9	-971.7	269.69	101.54	-760.2	1451.8	162	-925.77	504.68	47.751	-562.84	215.38	-89.486	-1054.4	116.12	58.748	-584.74	309.11	-84.722	-568.01	76.883	-132.72	-376.69	103.42	-103.51	-644.39	1673.5	-32.961	-614.42	901.35	319.15	-932.27	354.36	110.8	-771.33	782.56	-182.8	-543.37	106.07	-53.607	-642.45	1675.6	42.727	-1160.2	58.563	82.364	-417.65	83.393	-84.825	-751	1021.4	165.7
420	2.1	-540.18	907	311.11	-858.39	1282.6	-249.46	-871.25	793.95	-255.9	-933.19	985.24	-261.63	-928.92	850.27	-247.05	-1011.2	187.17	95.461	-815.69	1622.4	-68.658	-920.29	1136.1	-259.15	-911.33	25.363	129.54	-717.38	603.26	-162.63	-792.75	676.97	169.59	-1020.7	23.459	175.9	-856.48	849.2	-207.19	-945.74	1137.6	-185.81	-997.4	273.27	165.41	-963.81	34.81	101.99	-810.49	1629.1	72.774	-955.31	1015.9	59.8	-666.94	1232.9	-0.038741	-936.52	493.27	179	-837.36	1498.2	6.8834	-831.9	787.39	203.54	-742.4	691.61	-177.01	-692.8	1007.4	339.32	-680.13	713.11	-146.81	-947.43	1278.9	13.409	-692.65	509.29	-148.4	-1100.1	86.232	133.75	-747.19	1015.5	-121.62	-707.42	1408	2.3541	-958.69	1008.4	-17.379	-764.31	1290.5	273.58	-907.59	1412.4	144.83	-889.63	606.48	186.62	-815.51	1111.2	265.2	-774.65	1449.7	-164.54	-603.4	18.759	-84.938	-778.04	1140.3	334.29	-681.5	513.24	-14.906	-599.84	395.64	-82.206	-571.14	937.08	259.45	-858.43	695.22	198.19	-609.92	304.31	-153.13	-451.21	53.033	-160.96	-969.36	269.69	101.52	-754.86	1451.2	161.11	-921.02	504.24	47.586	-558.21	214.2	-88.722	-1053	118.42	59.2	-579.56	308.02	-84.155	-564.45	75.86	-131.69	-372.66	100.13	-102.74	-638.97	1672.9	-34.02	-608.3	901.28	318.31	-929.09	354	110.66	-765.37	782.14	-183.47	-539.46	104.82	-52.631	-637.02	1675	41.691	-1159.9	60.401	82.678	-414.07	80.843	-84.065	-745.37	1020.9	165.23
421	2.105	-534.22	907.19	310.48	-852.59	1281.7	-250.39	-866.32	792.85	-256.41	-927.6	984.38	-262.57	-923.77	849.43	-248.03	-1009.6	187.61	95.541	-810.26	1621.8	-69.734	-914.36	1135.2	-260.09	-911.33	25.34	129.52	-710.85	603.17	-162.43	-787.58	676.35	169.42	-1020.5	23.592	175.89	-851.61	848.11	-207.69	-940.07	1136.7	-186.85	-994.86	273.61	165.39	-963.67	34.828	102.06	-805.04	1628.6	71.696	-949.45	1015.2	58.834	-661.31	1232.4	-0.79897	-932.04	493.07	178.79	-831.93	1497.6	5.8263	-826.57	786.89	203	-736.1	691.38	-177.25	-687.15	1007.1	338.49	-673.84	713.19	-147.22	-941.84	1278.2	12.437	-686.45	508.73	-148.33	-1099.4	87.589	134.05	-741.19	1014.9	-122.25	-701.92	1407.4	1.4117	-952.85	1007.8	-18.33	-759.07	1289.9	272.69	-902.28	1411.8	143.72	-884.68	606.11	186.28	-810.08	1110.5	264.32	-769.13	1448.9	-165.55	-601.22	18.832	-84.101	-772.72	1139.7	333.44	-674.87	512.99	-14.956	-594.19	394.64	-81.835	-565.18	937.2	258.74	-853.3	694.8	197.76	-605.03	303.24	-152.44	-448.67	50.602	-160.08	-966.91	269.71	101.5	-749.52	1450.7	160.19	-916.09	503.77	47.425	-553.81	212.97	-88.002	-1051.5	120.76	59.648	-574.5	306.91	-83.617	-561.27	74.828	-130.75	-368.97	96.366	-101.96	-633.55	1672.3	-35.108	-602.32	901.18	317.48	-925.75	353.62	110.52	-759.31	781.82	-184.11	-535.92	103.48	-51.724	-631.58	1674.4	40.619	-1159.5	62.374	83.008	-410.9	77.946	-83.33	-739.72	1020.4	164.7
422	2.11	-528.4	907.31	309.87	-846.76	1280.8	-251.34	-861.22	791.77	-256.97	-921.89	983.52	-263.56	-918.46	848.6	-249.06	-1007.9	188.11	95.632	-804.83	1621.3	-70.852	-908.36	1134.3	-261.07	-911.34	25.315	129.49	-704.16	603.18	-162.24	-782.26	675.75	169.23	-1020.3	23.751	175.86	-846.6	847.03	-208.22	-934.32	1135.8	-187.92	-992.18	273.98	165.39	-963.53	34.834	102.14	-799.6	1628.1	70.578	-943.57	1014.5	57.888	-655.66	1231.9	-1.5931	-927.36	492.85	178.6	-826.49	1497	4.7354	-821.14	786.4	202.44	-729.68	691.26	-177.45	-681.61	1006.8	337.64	-667.42	713.39	-147.66	-936.23	1277.6	11.451	-680.11	508.27	-148.32	-1098.7	89.045	134.36	-735.18	1014.3	-122.91	-696.41	1406.9	0.43383	-946.99	1007.2	-19.266	-753.86	1289.4	271.78	-896.98	1411.2	142.58	-879.56	605.73	185.94	-804.7	1109.9	263.38	-763.61	1448.2	-166.6	-599.49	19.021	-83.395	-767.45	1139.2	332.53	-668.11	512.76	-15.106	-588.55	393.65	-81.485	-559.33	937.27	258.04	-848.05	694.38	197.31	-600.15	302.21	-151.81	-446.53	47.998	-159.29	-964.33	269.74	101.49	-744.17	1450.2	159.26	-910.97	503.29	47.272	-549.59	211.72	-87.339	-1050	123.12	60.09	-569.55	305.79	-83.117	-558.4	73.816	-129.91	-365.59	92.211	-101.18	-628.13	1671.8	-36.226	-596.49	901.04	316.65	-922.26	353.24	110.39	-753.16	781.59	-184.71	-532.71	102.11	-50.906	-626.15	1673.9	39.514	-1159.1	64.492	83.35	-408.08	74.771	-82.625	-734.03	1019.9	164.11
423	2.115	-522.73	907.36	309.28	-840.89	1279.8	-252.31	-855.94	790.71	-257.56	-916.05	982.65	-264.58	-912.99	847.77	-250.15	-1006.1	188.65	95.731	-799.4	1620.8	-72.009	-902.28	1133.3	-262.07	-911.35	25.288	129.46	-697.35	603.29	-162.08	-776.8	675.18	169.01	-1020.1	23.942	175.84	-841.43	845.98	-208.79	-928.5	1135	-189.03	-989.35	274.37	165.4	-963.37	34.827	102.22	-794.16	1627.6	69.421	-937.67	1013.9	56.968	-649.98	1231.5	-2.4224	-922.47	492.61	178.43	-821.03	1496.4	3.6124	-815.62	785.92	201.86	-723.17	691.22	-177.62	-676.18	1006.4	336.76	-660.89	713.69	-148.11	-930.61	1277	10.454	-673.64	507.92	-148.4	-1097.9	90.606	134.68	-729.15	1013.7	-123.59	-690.9	1406.4	-0.57798	-941.11	1006.6	-20.18	-748.69	1289	270.84	-891.69	1410.7	141.39	-874.26	605.32	185.6	-799.37	1109.4	262.37	-758.1	1447.5	-167.67	-598.12	19.321	-82.827	-762.24	1138.7	331.57	-661.27	512.58	-15.363	-582.93	392.69	-81.167	-553.6	937.28	257.35	-842.65	693.95	196.86	-595.28	301.26	-151.27	-444.72	45.281	-158.62	-961.61	269.8	101.5	-738.8	1449.7	158.3	-905.66	502.79	47.129	-545.55	210.48	-86.746	-1048.3	125.49	60.525	-564.69	304.69	-82.665	-555.79	72.847	-129.18	-362.46	87.756	-100.41	-622.7	1671.3	-37.372	-590.8	900.86	315.84	-918.6	352.85	110.27	-746.94	781.45	-185.26	-529.77	100.73	-50.191	-620.73	1673.5	38.376	-1158.5	66.771	83.701	-405.55	71.399	-81.963	-728.31	1019.4	163.45
424	2.12	-517.2	907.35	308.7	-834.99	1279	-253.31	-850.49	789.67	-258.2	-910.1	981.8	-265.64	-907.35	846.95	-251.28	-1004.2	189.27	95.839	-793.96	1620.4	-73.205	-896.14	1132.4	-263.11	-911.39	25.256	129.42	-690.45	603.47	-161.96	-771.2	674.63	168.77	-1019.9	24.17	175.8	-836.11	844.96	-209.39	-922.62	1134.1	-190.16	-986.36	274.8	165.42	-963.21	34.806	102.3	-788.72	1627.2	68.224	-931.76	1013.3	56.08	-644.27	1231.1	-3.288	-917.35	492.35	178.28	-815.55	1495.9	2.4597	-810	785.45	201.27	-716.58	691.26	-177.74	-670.87	1006.1	335.87	-654.24	714.05	-148.58	-924.98	1276.4	9.4483	-667.04	507.7	-148.56	-1096.9	92.282	135.02	-723.12	1013.3	-124.29	-685.37	1406	-1.6218	-935.22	1006.1	-21.066	-743.55	1288.5	269.87	-886.39	1410.2	140.17	-868.77	604.89	185.27	-794.07	1108.9	261.3	-752.57	1446.9	-168.78	-597.03	19.723	-82.395	-757.1	1138.2	330.56	-654.37	512.44	-15.734	-577.32	391.78	-80.89	-548	937.24	256.67	-837.1	693.51	196.4	-590.37	300.4	-150.85	-443.18	42.514	-158.1	-958.73	269.89	101.51	-733.43	1449.3	157.32	-900.13	502.26	46.999	-541.65	209.27	-86.231	-1046.5	127.87	60.951	-559.91	303.63	-82.271	-553.4	71.938	-128.59	-359.56	83.106	-99.671	-617.27	1670.9	-38.545	-585.25	900.66	315.03	-914.76	352.46	110.16	-740.65	781.37	-185.75	-527.07	99.376	-49.588	-615.31	1673.1	37.209	-1157.9	69.222	84.055	-403.28	67.921	-81.355	-722.56	1018.9	162.71
425	2.125	-511.81	907.27	308.13	-829.06	1278.1	-254.33	-844.85	788.67	-258.87	-904.03	980.95	-266.73	-901.55	846.15	-252.46	-1002.1	189.95	95.956	-788.52	1620	-74.438	-889.92	1131.5	-264.17	-911.44	25.221	129.37	-683.47	603.72	-161.87	-765.44	674.12	168.49	-1019.7	24.442	175.75	-830.62	843.97	-210.03	-916.66	1133.2	-191.32	-983.2	275.27	165.47	-963.05	34.768	102.39	-783.28	1626.9	66.991	-925.84	1012.7	55.229	-638.54	1230.8	-4.1904	-912	492.06	178.15	-810.06	1495.5	1.2804	-804.28	784.99	200.66	-709.93	691.37	-177.84	-665.66	1005.8	334.95	-647.52	714.47	-149.08	-919.33	1276	8.4383	-660.32	507.61	-148.81	-1095.9	94.08	135.35	-717.09	1012.9	-125.02	-679.84	1405.7	-2.6951	-929.33	1005.6	-21.92	-738.44	1288.1	268.87	-881.09	1409.8	138.92	-863.08	604.45	184.94	-788.83	1108.4	260.15	-747.05	1446.3	-169.91	-596.15	20.21	-82.092	-752.01	1137.8	329.49	-647.43	512.38	-16.219	-571.73	390.92	-80.664	-542.51	937.16	256	-831.41	693.08	195.94	-585.42	299.64	-150.54	-441.88	39.759	-157.73	-955.7	270.02	101.54	-728.05	1449	156.33	-894.39	501.71	46.89	-537.89	208.11	-85.798	-1044.6	130.25	61.367	-555.2	302.62	-81.941	-551.19	71.098	-128.12	-356.87	78.364	-98.978	-611.84	1670.6	-39.743	-579.85	900.43	314.23	-910.72	352.07	110.07	-734.29	781.37	-186.18	-524.58	98.074	-49.099	-609.89	1672.8	36.012	-1157.1	71.861	84.405	-401.23	64.423	-80.811	-716.77	1018.4	161.89
426	2.13	-506.58	907.13	307.58	-823.09	1277.3	-255.37	-839.04	787.7	-259.59	-897.84	980.13	-267.85	-895.59	845.37	-253.68	-999.89	190.71	96.081	-783.07	1619.7	-75.705	-883.64	1130.6	-265.25	-911.51	25.182	129.32	-676.45	604.03	-161.83	-759.53	673.65	168.18	-1019.4	24.765	175.69	-824.98	843.03	-210.71	-910.64	1132.3	-192.51	-979.85	275.77	165.53	-962.87	34.715	102.47	-777.85	1626.6	65.723	-919.91	1012.2	54.417	-632.8	1230.6	-5.1288	-906.39	491.76	178.05	-804.56	1495.1	0.077897	-798.46	784.55	200.05	-703.24	691.54	-177.91	-660.57	1005.4	334.01	-640.72	714.94	-149.61	-913.69	1275.5	7.4271	-653.48	507.64	-149.16	-1094.8	96.008	135.69	-711.06	1012.5	-125.77	-674.29	1405.4	-3.7947	-923.43	1005.2	-22.738	-733.35	1287.8	267.84	-875.78	1409.4	137.64	-857.17	603.97	184.62	-783.63	1108	258.94	-741.52	1445.7	-171.06	-595.43	20.76	-81.907	-746.99	1137.4	328.37	-640.5	512.39	-16.816	-566.15	390.13	-80.494	-537.15	937.03	255.35	-825.55	692.64	195.48	-580.43	298.98	-150.36	-440.76	37.074	-157.52	-952.48	270.18	101.59	-722.64	1448.7	155.31	-888.41	501.13	46.806	-534.25	207.01	-85.448	-1042.6	132.61	61.771	-550.57	301.68	-81.68	-549.14	70.334	-127.78	-354.37	73.623	-98.342	-606.41	1670.3	-40.966	-574.61	900.18	313.44	-906.47	351.67	110.01	-727.89	781.42	-186.56	-522.27	96.843	-48.722	-604.48	1672.5	34.788	-1156.2	74.699	84.744	-399.37	60.987	-80.338	-710.96	1018	161
